<svg width="1200" height="1200" viewBox="0 0 1200 1200" fill="none" xmlns="http://www.w3.org/2000/svg">
  <defs>
    <linearGradient id="bg" x1="0" y1="0" x2="1200" y2="1200" gradientUnits="userSpaceOnUse">
      <stop stop-color="#020617"/>
      <stop offset="0.45" stop-color="#0F172A"/>
      <stop offset="1" stop-color="#1E1B4B"/>
    </linearGradient>
  </defs>
  <rect width="1200" height="1200" rx="80" fill="url(#bg)"/>
  <circle cx="860" cy="260" r="170" fill="#A855F7" fill-opacity="0.16"/>
  <circle cx="290" cy="940" r="220" fill="#38BDF8" fill-opacity="0.14"/>
  <circle cx="600" cy="470" r="170" fill="#E5E7EB" fill-opacity="0.9"/>
  <path d="M480 452C480 381 533 329 600 329C667 329 720 381 720 452V536C720 606 667 666 600 666C533 666 480 606 480 536V452Z" fill="#C08457"/>
  <path d="M430 490C430 387 513 291 600 291C687 291 770 387 770 490V569C770 653 704 720 600 720C496 720 430 653 430 569V490Z" fill="#111827"/>
  <path d="M450 1030C450 894 515 808 600 808C685 808 750 894 750 1030V1200H450V1030Z" fill="#111827"/>
  <rect x="360" y="830" width="480" height="250" rx="125" fill="#1F2937"/>
  <path d="M520 522C520 498 539 480 562 480H638C661 480 680 498 680 522V554C680 578 661 596 638 596H562C539 596 520 578 520 554V522Z" fill="#E5E7EB"/>
  <circle cx="550" cy="560" r="10" fill="#0F172A"/>
  <circle cx="650" cy="560" r="10" fill="#0F172A"/>
  <path d="M548 625C578 650 622 650 652 625" stroke="#0F172A" stroke-width="14" stroke-linecap="round"/>
</svg>
