<svg width="1200" height="1500" viewBox="0 0 1200 1500" fill="none" xmlns="http://www.w3.org/2000/svg">
  <defs>
    <linearGradient id="bg" x1="0" y1="0" x2="1200" y2="1500" gradientUnits="userSpaceOnUse">
      <stop stop-color="#020617"/>
      <stop offset="0.5" stop-color="#111827"/>
      <stop offset="1" stop-color="#1E1B4B"/>
    </linearGradient>
    <radialGradient id="glow1" cx="0" cy="0" r="1" gradientUnits="userSpaceOnUse" gradientTransform="translate(850 340) rotate(125) scale(520 360)">
      <stop stop-color="#A855F7" stop-opacity="0.75"/>
      <stop offset="1" stop-color="#A855F7" stop-opacity="0"/>
    </radialGradient>
    <radialGradient id="glow2" cx="0" cy="0" r="1" gradientUnits="userSpaceOnUse" gradientTransform="translate(300 1040) rotate(34) scale(540 480)">
      <stop stop-color="#38BDF8" stop-opacity="0.45"/>
      <stop offset="1" stop-color="#38BDF8" stop-opacity="0"/>
    </radialGradient>
  </defs>
  <rect width="1200" height="1500" fill="url(#bg)"/>
  <rect width="1200" height="1500" fill="url(#glow1)"/>
  <rect width="1200" height="1500" fill="url(#glow2)"/>
  <circle cx="970" cy="230" r="170" fill="#F472B6" fill-opacity="0.08"/>
  <circle cx="250" cy="1240" r="260" fill="#60A5FA" fill-opacity="0.08"/>
  <g opacity="0.9">
    <circle cx="600" cy="540" r="185" fill="#E5E7EB" fill-opacity="0.92"/>
    <path d="M470 520C470 449 523 397 600 397C677 397 730 449 730 520V610C730 686 677 750 600 750C523 750 470 686 470 610V520Z" fill="#C08457"/>
    <path d="M430 580C430 462 519 350 600 350C681 350 770 462 770 580V680C770 771 698 842 600 842C502 842 430 771 430 680V580Z" fill="#1F2937"/>
    <ellipse cx="600" cy="620" rx="82" ry="62" fill="#E5E7EB"/>
    <path d="M520 862C556 812 644 812 680 862L742 1450H458L520 862Z" fill="#0F172A"/>
    <rect x="380" y="900" width="440" height="220" rx="110" fill="#111827"/>
    <path d="M480 950C520 906 680 906 720 950" stroke="#A855F7" stroke-opacity="0.6" stroke-width="18" stroke-linecap="round"/>
    <circle cx="545" cy="615" r="12" fill="#0F172A"/>
    <circle cx="655" cy="615" r="12" fill="#0F172A"/>
    <path d="M540 690C570 718 630 718 660 690" stroke="#0F172A" stroke-width="16" stroke-linecap="round"/>
  </g>
</svg>
